<?xml version="1.0" encoding="utf-8"?>
<!-- Generator: Adobe Illustrator 16.0.0, SVG Export Plug-In . SVG Version: 6.00 Build 0)  -->
<!DOCTYPE svg PUBLIC "-//W3C//DTD SVG 1.1//EN" "http://www.w3.org/Graphics/SVG/1.1/DTD/svg11.dtd">
<svg version="1.1" id="Babelot" xmlns="http://www.w3.org/2000/svg" xmlns:xlink="http://www.w3.org/1999/xlink" x="0px" y="0px"
	 width="50.197px" height="38.034px" viewBox="295.114 240.555 50.197 38.034"
	 enable-background="new 295.114 240.555 50.197 38.034" xml:space="preserve">
<g>
	<path fill="#F4D603" d="M343.964,267.285c-0.307-6.079,0,0-1.322-26.188c-3.467-0.271-5.384,11.977-9.075,12.176
		c-12.348-13.9-16.314-17.066-21.346,4.275c-4.667,1.769-12.194-7.898-15.833-5.043c12.195,23.277,0,0,12.589,24.027
		c0-0.001,0.001-0.001,0.001-0.001c0.496,1.826,8.682,1.246,18.319-1.302C336.936,272.683,344.382,269.13,343.964,267.285
		C343.963,267.285,343.964,267.285,343.964,267.285z"/>
</g>
<path fill="#E8C207" d="M342.288,240.57c0,0,2.849,27.957-21.393,34.605c-2.356,2.956,24.241-6.648,24.241-6.648"/>
<g>
	<path fill="#494B61" d="M342.143,242.375c0.035,0,0.071,0.001,0.106,0.004c1.224,24.612,0.939,18.899,1.224,24.612c0,0,0,0-0.001,0
		h-0.001c0.403,1.733-6.895,5.092-16.339,7.514c-5.761,1.477-10.989,2.264-14.302,2.264c-2.116,0-3.45-0.322-3.637-0.991
		c-0.001,0-0.002,0.001-0.002,0.001c-12.257-22.55-0.381-0.703-12.257-22.55c0.467-0.353,1-0.504,1.582-0.504
		c3.483,0,8.754,5.41,12.672,5.41c0.428,0,0.841-0.065,1.232-0.208c2.534-10.208,4.78-14.458,7.962-14.458
		c3.075,0.001,7.024,3.974,12.947,10.379C336.908,253.654,338.816,242.374,342.143,242.375 M342.142,240.555
		c-2.798,0-4.31,3.209-5.91,6.607c-0.578,1.228-1.661,3.526-2.479,4.464c-5.797-6.232-9.692-9.976-13.369-9.977
		c-4.629,0-7.094,5.574-9.43,14.655c-1.502-0.127-3.632-1.412-5.521-2.552c-2.427-1.464-4.719-2.847-6.916-2.847
		c-1.011,0-1.912,0.293-2.678,0.871c-0.719,0.543-0.934,1.53-0.503,2.322c5.937,10.922,5.937,10.922,5.984,11.01
		s0.142,0.262,6.209,11.425c0.719,1.814,3.192,2.055,5.301,2.055c3.623,0,9-0.846,14.754-2.321
		c4.668-1.197,8.991-2.662,12.171-4.125c2.937-1.351,5.864-3.037,5.53-5.342l-0.254-5.12l-0.964-19.393
		c-0.046-0.918-0.77-1.659-1.687-1.725c-0.079-0.006-0.159-0.009-0.237-0.009H342.142L342.142,240.555L342.142,240.555z"/>
</g>
<g>
	<path fill="#31DCFF" d="M323.864,266.509c-0.16,0-0.319-0.056-0.449-0.169l-4.002-3.499c-0.284-0.248-0.312-0.679-0.064-0.963
		l3.618-4.141c0.135-0.154,0.324-0.233,0.514-0.233c0.159,0,0.319,0.056,0.449,0.168l4.006,3.499
		c0.136,0.119,0.22,0.288,0.231,0.468c0.013,0.181-0.048,0.359-0.167,0.495l-3.622,4.141
		C324.243,266.43,324.054,266.509,323.864,266.509z"/>
	<path fill="#494B61" d="M323.48,258.187l4.006,3.499l-3.622,4.141l-4.002-3.499L323.48,258.187 M323.481,256.821
		c-0.381,0-0.759,0.158-1.029,0.467l-3.618,4.142c-0.496,0.567-0.438,1.43,0.13,1.926l4.002,3.499
		c0.259,0.226,0.579,0.337,0.897,0.337c0.381,0,0.759-0.158,1.028-0.466l3.622-4.141c0.238-0.273,0.359-0.629,0.335-0.99
		c-0.024-0.362-0.191-0.699-0.464-0.937l-4.006-3.499C324.12,256.933,323.8,256.821,323.481,256.821L323.481,256.821z"/>
</g>
<g id="Layer_3">
	
		<path fill="none" stroke="#FFFFFF" stroke-width="2.7302" stroke-linecap="round" stroke-linejoin="round" stroke-miterlimit="10" d="
		M319.921,246.67c0,0-1.275,1.431-1.84,3.245"/>
	
		<line fill="none" stroke="#FFFFFF" stroke-width="2.7302" stroke-linecap="round" stroke-linejoin="round" stroke-miterlimit="10" x1="316.85" y1="253.577" x2="316.7" y2="254.202"/>
</g>
</svg>
