<?xml version="1.0" encoding="utf-8"?>
<!-- Generator: Adobe Illustrator 16.0.0, SVG Export Plug-In . SVG Version: 6.00 Build 0)  -->
<!DOCTYPE svg PUBLIC "-//W3C//DTD SVG 1.1//EN" "http://www.w3.org/Graphics/SVG/1.1/DTD/svg11.dtd">
<svg version="1.1" id="Layer_2" xmlns="http://www.w3.org/2000/svg" xmlns:xlink="http://www.w3.org/1999/xlink" x="0px" y="0px"
	 width="40.775px" height="37.139px" viewBox="282.595 381.013 40.775 37.139"
	 enable-background="new 282.595 381.013 40.775 37.139" xml:space="preserve">
<path fill="#F9628D" stroke="#494B61" stroke-width="1.7751" stroke-miterlimit="10" d="M288.396,389.478
	c4.366-1.188,25.073-6.989,27.736-7.544c3.883-0.443,4.326,3.772,4.326,3.772s0.665,3.772,1.775,9.874
	c1.118,5.029-1.886,6.546-1.886,6.546s-24.325,13.646-26.072,14.423c-1.393,0.567-6.434,2.587-7.438-4.312
	c-0.245-1.246-2.878-14.789-3.212-16.324c-0.302-1.393-0.154-2.829,0.753-4.039C285.133,390.867,286.414,390.017,288.396,389.478z"
	/>
<path fill="none" stroke="#494B61" stroke-width="1.7751" stroke-linecap="round" stroke-linejoin="round" stroke-miterlimit="10" d="
	M284.948,392.584c0,0,14.098,5.707,18.37,7.408s6.778-1.993,6.416-1.553c-0.043,0.263,1.045-1.579,2.457-4.045
	c0.479-0.836,2.507-4.421,2.983-5.269c1.678-2.988,3.095-5.538,3.095-5.538"/>
</svg>
