<?xml version="1.0" encoding="utf-8"?>
<!-- Generator: Adobe Illustrator 16.0.0, SVG Export Plug-In . SVG Version: 6.00 Build 0)  -->
<!DOCTYPE svg PUBLIC "-//W3C//DTD SVG 1.1//EN" "http://www.w3.org/Graphics/SVG/1.1/DTD/svg11.dtd">
<svg version="1.1" xmlns="http://www.w3.org/2000/svg" xmlns:xlink="http://www.w3.org/1999/xlink" x="0px" y="0px"
	 width="41.056px" height="50.972px" viewBox="0 0 41.056 50.972" enable-background="new 0 0 41.056 50.972" xml:space="preserve">
<g id="Layer_1">
</g>
<g id="Babelot">
	<g id="bg_3_">
	</g>
	
		<path fill="#FFFFFF" stroke="#4A4B61" stroke-width="1.7" stroke-linecap="round" stroke-linejoin="round" stroke-miterlimit="10" d="
		M39.463,28.766C38.605,18.61,29.434,11.225,18.975,12.269C8.518,13.313,0.734,22.394,1.592,32.549
		c0.396,4.701,2.577,8.809,5.84,11.761c0,0-1.992,5.047-1.125,5.721c0.867,0.675,5.714-2.674,5.714-2.674l-0.007-0.004
		c3.011,1.411,6.461,2.054,10.065,1.693C32.537,48.001,40.32,38.922,39.463,28.766z"/>
	<g>
		<path fill="#F3D60F" d="M8.427,18.049c-0.297,0-1.173,0-1.502-0.631c-3.038-4.376-3.133-4.512-6.11-8.804
			C0.619,8.333,0.659,7.952,0.908,7.718C1.246,7.4,1.677,7.239,2.188,7.239c0.835,0,1.756,0.427,2.731,0.879
			c0.87,0.403,1.769,0.82,2.419,0.82c0.033,0,0.065-0.001,0.096-0.003c0.581-4.06,1.392-6.555,3.458-6.555
			c1.471,0,3.193,1.353,5.792,3.603c0.317-0.405,0.689-1.486,0.887-2.06c0.521-1.512,1.013-2.941,2.198-2.984
			c0.009,0,0.017,0,0.026,0c0.338,0,0.628,0.246,0.682,0.582l1.625,10.176c0.418,1.712-4.673,3.832-6.909,4.673
			C12.437,17.406,9.844,18.049,8.427,18.049L8.427,18.049z"/>
		<path fill="#4A4B61" d="M19.796,1.629c1.631,10.215,1.253,7.843,1.631,10.215l0,0c0,0,0,0,0,0
			c0.248,0.705-2.646,2.438-6.475,3.879c-2.751,1.034-5.239,1.636-6.525,1.636c-0.505,0-0.825-0.093-0.903-0.289
			c0,0,0,0.001,0,0.001c-6.142-8.851-0.192-0.275-6.142-8.851c0.22-0.207,0.494-0.292,0.807-0.292c1.403,0,3.588,1.7,5.151,1.7
			c0.258,0,0.5-0.046,0.718-0.155c0.618-4.558,1.4-6.403,2.835-6.403c1.273,0,3.061,1.452,5.704,3.75
			C18.096,6.574,18.37,1.681,19.796,1.629 M21.427,11.844L21.427,11.844 M19.796,0.247c-0.017,0-0.034,0-0.051,0.001
			c-1.659,0.061-2.279,1.861-2.826,3.45c-0.117,0.341-0.278,0.809-0.439,1.197c-2.364-2.014-4.023-3.206-5.586-3.206
			c-2.643,0-3.515,3.055-4.043,6.475C6.369,8.028,5.763,7.747,5.21,7.491c-1-0.464-2.035-0.943-3.021-0.943c0,0,0,0,0,0
			c-0.864,0-1.431,0.362-1.754,0.667c-0.498,0.469-0.578,1.231-0.188,1.793c2.977,4.29,2.977,4.29,3,4.325
			c0.024,0.034,0.071,0.102,3.094,4.458c0.268,0.472,0.845,0.949,2.086,0.949c1.517,0,4.138-0.645,7.011-1.724
			c7.694-2.896,7.563-4.764,7.336-5.502l-0.097-0.603L22.16,7.672l-1-6.261C21.053,0.739,20.473,0.247,19.796,0.247L19.796,0.247z"
			/>
	</g>
	<path fill="#E7C21F" d="M19.11,1.283c0,0,2.41,11.296-7.199,15.093c-0.832,1.312,9.609-3.797,9.609-3.797"/>
	<g>
		<path fill="#4A4B61" d="M19.435,1.7c1.568,9.824,1.204,7.543,1.568,9.824c0,0,0,0,0,0c0.238,0.678-2.544,2.345-6.228,3.73
			c-2.646,0.995-5.039,1.574-6.276,1.574c-0.485,0-0.792-0.089-0.867-0.277c-0.001,0-0.001,0-0.001,0
			C1.723,8.04,7.445,16.287,1.723,8.04c0.211-0.199,0.475-0.28,0.776-0.28c1.35,0,3.452,1.636,4.955,1.636
			c0.248,0,0.479-0.045,0.689-0.148c0.594-4.385,1.347-6.16,2.728-6.16c1.225,0,2.944,1.397,5.486,3.608
			C17.799,6.457,18.062,1.75,19.435,1.7 M19.436,0c-0.021,0-0.042,0-0.063,0.001c-1.851,0.068-2.52,2.009-3.057,3.569
			c-0.064,0.188-0.145,0.42-0.229,0.652c-2.131-1.788-3.687-2.836-5.215-2.836c-2.845,0-3.735,3.259-4.192,6.103
			C6.31,7.349,5.903,7.16,5.563,7.002C4.564,6.539,3.531,6.06,2.499,6.06c-0.953,0-1.582,0.403-1.941,0.742
			c-0.613,0.577-0.711,1.515-0.232,2.207l2.884,4.156l2.963,4.271c0.31,0.545,0.96,1.093,2.324,1.093
			c1.502,0,4.072-0.629,6.874-1.683c7.708-2.899,7.556-4.866,7.286-5.729l-0.106-0.668L21.81,5.796l-0.697-4.364
			C20.981,0.605,20.267,0,19.436,0L19.436,0z"/>
	</g>
	<g>
		<path fill="#5BCAED" d="M13.065,12.908c-0.122,0-0.242-0.037-0.344-0.108l-1.792-1.251c-0.271-0.189-0.338-0.563-0.148-0.835
			l1.372-1.966c0.091-0.131,0.23-0.22,0.387-0.248c0.035-0.006,0.07-0.009,0.105-0.009c0.122,0,0.242,0.037,0.344,0.108l1.792,1.251
			c0.271,0.189,0.338,0.563,0.148,0.835l-1.372,1.966c-0.091,0.131-0.23,0.22-0.387,0.248C13.135,12.905,13.1,12.908,13.065,12.908z
			"/>
		<path fill="#4A4B61" d="M12.646,9.091l1.792,1.251l-1.372,1.966l-1.792-1.251L12.646,9.091 M12.646,7.891
			c-0.07,0-0.14,0.006-0.21,0.019c-0.313,0.056-0.592,0.234-0.774,0.495L10.29,10.37c-0.379,0.543-0.247,1.292,0.297,1.671
			l1.792,1.251c0.203,0.142,0.443,0.216,0.687,0.216c0.07,0,0.14-0.006,0.21-0.019c0.313-0.056,0.592-0.234,0.774-0.495l1.372-1.966
			c0.379-0.543,0.247-1.292-0.297-1.671l-1.792-1.251C13.13,7.966,12.89,7.891,12.646,7.891L12.646,7.891z"/>
	</g>
	<g id="Layer_3">
	</g>
	<circle fill="#494B61" cx="7.717" cy="29.751" r="1.743"/>
	<g>
		
			<path fill="#EAEEEE" stroke="#494B61" stroke-width="1.3631" stroke-linecap="round" stroke-linejoin="round" stroke-miterlimit="10" d="
			M32.794,35.077c-2.262-6.291-11.777-3.323-11.777-3.323S11.5,28.787,9.238,35.077c-1.51,4.199,2.042,1.631,2.042,1.631
			c-1.434,3.914,2.152,1.678,2.152,1.678c-0.718,3.354,6.801-0.094,7.585-1.105c0.784,1.011,8.303,4.459,7.584,1.105
			c0,0,3.586,2.236,2.152-1.678C30.753,36.708,34.304,39.276,32.794,35.077z"/>
		<path fill="#FFFFFF" d="M12.355,34.408c0.618,0.525,3.323-0.632,3.382-1.521C15.797,31.997,11.41,32.789,12.355,34.408z"/>
	</g>
	<circle fill="#494B61" cx="33.717" cy="29.751" r="1.743"/>
</g>
</svg>
