<?xml version="1.0" encoding="utf-8"?>
<!-- Generator: Adobe Illustrator 16.0.0, SVG Export Plug-In . SVG Version: 6.00 Build 0)  -->
<!DOCTYPE svg PUBLIC "-//W3C//DTD SVG 1.1//EN" "http://www.w3.org/Graphics/SVG/1.1/DTD/svg11.dtd">
<svg version="1.1" xmlns="http://www.w3.org/2000/svg" xmlns:xlink="http://www.w3.org/1999/xlink" x="0px" y="0px"
	 width="31.417px" height="39.66px" viewBox="0 0 31.417 39.66" enable-background="new 0 0 31.417 39.66" xml:space="preserve">
<g id="Layer_1">
</g>
<g id="Babelot">
	<g id="bg_3_">
	</g>
	
		<path fill="#FFFFFF" stroke="#4A4B61" stroke-width="1.3227" stroke-linecap="round" stroke-linejoin="round" stroke-miterlimit="10" d="
		M30.706,22.382C30.038,14.48,22.902,8.734,14.764,9.546C6.627,10.359,0.571,17.424,1.238,25.326
		c0.309,3.658,2.005,6.854,4.544,9.151c0,0-1.55,3.928-0.875,4.452c0.675,0.525,4.446-2.081,4.446-2.081l-0.005-0.004
		c2.343,1.098,5.027,1.598,7.832,1.318C25.316,37.349,31.372,30.284,30.706,22.382z"/>
	<g>
		<path fill="#F3D60F" d="M6.557,14.043c-0.231,0-0.913,0-1.169-0.491c-2.363-3.405-2.437-3.51-4.754-6.85
			c-0.151-0.218-0.12-0.515,0.073-0.697c0.263-0.248,0.598-0.373,0.996-0.373c0.649,0,1.366,0.333,2.125,0.684
			C4.504,6.63,5.205,6.954,5.711,6.954c0.025,0,0.05,0,0.074-0.002c0.452-3.159,1.083-5.1,2.69-5.1c1.145,0,2.484,1.053,4.507,2.803
			c0.247-0.314,0.537-1.156,0.69-1.603c0.405-1.176,0.788-2.288,1.71-2.321c0.006,0,0.013,0,0.02,0c0.263,0,0.488,0.191,0.53,0.453
			l1.27,7.949c0.448,1.249-3.613,2.94-5.38,3.605C9.677,13.542,7.66,14.043,6.557,14.043L6.557,14.043z"/>
		<path fill="#4A4B61" d="M15.402,1.267c1.27,7.948,0.975,6.103,1.27,7.948l0,0c0,0,0,0,0,0c0.193,0.548-2.059,1.897-5.038,3.018
			c-2.141,0.805-4.076,1.273-5.077,1.273c-0.393,0-0.642-0.072-0.703-0.224c0,0,0,0.001,0,0.001
			c-4.778-6.887-0.149-0.214-4.778-6.887c0.171-0.161,0.384-0.227,0.627-0.227c1.092,0,2.792,1.322,4.008,1.322
			c0.201,0,0.389-0.036,0.559-0.12c0.48-3.547,1.089-4.983,2.206-4.982c0.991,0,2.382,1.13,4.438,2.917
			C14.08,5.115,14.293,1.308,15.402,1.267 M16.672,9.215L16.672,9.215 M15.403,0.192c-0.013,0-0.026,0-0.04,0.001
			c-1.291,0.047-1.773,1.448-2.199,2.684c-0.092,0.265-0.217,0.63-0.342,0.932c-1.839-1.567-3.13-2.494-4.346-2.494
			c-2.057,0-2.735,2.376-3.146,5.038C4.955,6.246,4.484,6.028,4.054,5.829C3.275,5.467,2.471,5.094,1.703,5.094
			c-0.672,0-1.113,0.282-1.364,0.519c-0.388,0.365-0.45,0.958-0.146,1.396c2.316,3.339,2.316,3.339,2.335,3.366
			c0.019,0.026,0.056,0.08,2.407,3.467c0.208,0.367,0.658,0.739,1.623,0.739c1.181,0,3.22-0.501,5.455-1.342
			c5.987-2.252,5.885-3.706,5.708-4.281l-0.078-0.49l-0.43-2.693l-0.748-4.678C16.38,0.574,15.929,0.192,15.403,0.192L15.403,0.192z
			"/>
	</g>
	<path fill="#E7C21F" d="M14.869,0.998c0,0,1.875,8.789-5.601,11.744c-0.647,1.021,7.477-2.955,7.477-2.955"/>
	<g>
		<path fill="#4A4B61" d="M15.122,1.323c1.22,7.644,0.937,5.87,1.22,7.644c0.185,0.528-1.98,1.825-4.846,2.903
			c-2.059,0.774-3.921,1.225-4.883,1.225c-0.377,0-0.616-0.069-0.675-0.215c0,0,0,0,0,0c-4.596-6.624-0.144-0.207-4.596-6.624
			C1.505,6.1,1.71,6.037,1.944,6.037c1.05,0,2.686,1.273,3.855,1.273c0.193,0,0.374-0.035,0.536-0.115
			c0.463-3.413,1.048-4.793,2.123-4.793c0.953,0,2.291,1.087,4.269,2.807C13.849,5.023,14.053,1.362,15.122,1.323 M15.122,0
			c-0.016,0-0.032,0-0.049,0.001c-1.44,0.053-1.961,1.563-2.379,2.777c-0.05,0.146-0.112,0.327-0.179,0.507
			c-1.658-1.391-2.868-2.206-4.057-2.207c0,0,0,0-0.001,0c-2.103,0-2.833,2.206-3.256,4.75c-0.288-0.11-0.607-0.258-0.873-0.381
			C3.551,5.087,2.747,4.714,1.944,4.714c-0.741,0-1.23,0.314-1.51,0.577C-0.042,5.74-0.119,6.471,0.254,7.009
			C2.482,10.22,2.482,10.22,2.5,10.246c0.018,0.025,0.054,0.077,2.3,3.314c0.239,0.426,0.746,0.857,1.812,0.857
			c1.169,0,3.168-0.49,5.349-1.31c5.998-2.255,5.879-3.786,5.669-4.457l-0.241-1.513l-0.961-6.023C16.325,0.47,15.77,0,15.122,0
			L15.122,0z"/>
	</g>
	<g>
		<path fill="#5BCAED" d="M10.166,10.043c-0.095,0-0.188-0.029-0.267-0.084L8.504,8.986c-0.211-0.147-0.263-0.438-0.116-0.65
			l1.067-1.529c0.071-0.102,0.179-0.171,0.301-0.192c0.027-0.005,0.054-0.007,0.082-0.007c0.095,0,0.188,0.029,0.267,0.084
			L11.5,7.664c0.211,0.147,0.263,0.438,0.116,0.65l-1.067,1.53c-0.071,0.102-0.179,0.171-0.301,0.192
			C10.22,10.041,10.193,10.043,10.166,10.043z"/>
		<path fill="#4A4B61" d="M9.839,7.074l1.394,0.973l-1.067,1.53L8.771,8.603L9.839,7.074 M9.839,6.14
			c-0.055,0-0.109,0.005-0.164,0.014C9.432,6.198,9.215,6.336,9.073,6.54L8.006,8.069c-0.295,0.422-0.192,1.004,0.231,1.3
			l1.394,0.974c0.158,0.11,0.345,0.168,0.535,0.168c0.055,0,0.109-0.005,0.164-0.014c0.244-0.043,0.46-0.182,0.602-0.385l1.067-1.53
			c0.295-0.423,0.191-1.005-0.231-1.3l-1.394-0.973C10.215,6.198,10.029,6.14,9.839,6.14L9.839,6.14z"/>
	</g>
	<g id="Layer_3">
	</g>
	<circle fill="#494B61" cx="6.782" cy="24.705" r="1.357"/>
	<circle fill="#494B61" cx="25.457" cy="24.705" r="1.356"/>
</g>
</svg>
