<?xml version="1.0" encoding="utf-8"?>
<!-- Generator: Adobe Illustrator 16.0.0, SVG Export Plug-In . SVG Version: 6.00 Build 0)  -->
<!DOCTYPE svg PUBLIC "-//W3C//DTD SVG 1.1//EN" "http://www.w3.org/Graphics/SVG/1.1/DTD/svg11.dtd">
<svg version="1.1" id="Layer_1" xmlns="http://www.w3.org/2000/svg" xmlns:xlink="http://www.w3.org/1999/xlink" x="0px" y="0px"
	 width="29.409px" height="45.175px" viewBox="357.992 368.683 29.409 45.175"
	 enable-background="new 357.992 368.683 29.409 45.175" xml:space="preserve">
<g id="Layer_2">
	
		<path fill="#F2D70F" stroke="#494B61" stroke-width="2.4079" stroke-linecap="round" stroke-linejoin="round" stroke-miterlimit="10" d="
		M379.442,370.485c-1.165-0.464-2.415-0.69-3.694-0.564c-0.778-0.033-1.569,0.194-2.317,0.63c-0.001,0-0.001,0-0.002,0.001
		c0,0,0,0,0,0c-1.628,0.95-3.056,2.899-3.722,5.366c-1.073,3.973,0.231,7.781,2.915,8.506c1.04,0.281,2.134,0.056,3.146-0.554
		c-0.337,2.766-1.079,5.688-2.254,8.637c-1.019,2.557-2.2,4.902-3.51,6.974c-0.337-0.541-0.782-0.983-1.333-1.29
		c-2.47-1.373-6.12,0.477-8.154,4.133c-2.033,3.655-1.681,7.733,0.789,9.106c0.327,0.183,0.676,0.306,1.038,0.378
		c0.166,0.088,0.343,0.171,0.534,0.247c6.93,2.762,16.256-4.306,20.83-15.786C388.282,384.791,386.372,373.247,379.442,370.485z"/>
</g>
</svg>
